<?xml version="1.0" encoding="UTF-8"?><svg id="Capa_2" xmlns="http://www.w3.org/2000/svg" viewBox="0 0 22.7 27.28"><defs><style>.cls-1{fill:#39a900;stroke-width:0px;}</style></defs><g id="TEXTO"><path class="cls-1" d="M22.12,8.62c.44-.44.44-1.15,0-1.58l-.85-.85c-.44-.44-1.15-.44-1.58,0l-1.04,1.05c-1.6-1.35-3.55-2.22-5.61-2.53v-1.24h.59c.63,0,1.13-.51,1.14-1.14v-1.2c0-.62-.53-1.12-1.14-1.12h-4.54c-.62,0-1.14.51-1.14,1.12v1.2c.01.63.52,1.13,1.14,1.14h.59v1.24C4.2,5.51,0,10.24,0,15.94c0,6.26,5.09,11.35,11.35,11.35s11.35-5.09,11.35-11.35c0-2.17-.62-4.29-1.79-6.11l1.21-1.21ZM20.48,6.98l.85.85-1.07,1.07c-.25-.31-.51-.62-.8-.91l1.02-1.01ZM8.89,2.15v-.83c0-.14.11-.25.25-.25h4.44c.14,0,.25.11.25.25v.83c0,.14-.11.25-.25.25h-4.44c-.14,0-.25-.11-.25-.25ZM10.8,3.47h1.12v1.14c-.22-.01-.38-.01-.56-.01s-.34,0-.56.01v-1.14ZM11.36,26.42C5.57,26.42.87,21.72.87,15.94S5.57,5.45,11.36,5.45s10.49,4.71,10.49,10.49-4.7,10.49-10.49,10.49Z"/><path class="cls-1" d="M11.36,6.92h-.11c-4.86.06-8.8,3.97-8.91,8.82-.04.08-.06.16-.06.25,0,.09.02.18.07.26.17,4.78,4.07,8.63,8.87,8.7.03,0,.05,0,.08,0,.02,0,.04,0,.07,0,4.97,0,9.01-4.04,9.01-9.01s-4.04-9.02-9.02-9.02ZM11.86,23.91v-1.04c0-.31-.25-.56-.56-.56s-.56.25-.56.56v1.03c-3.92-.3-7.06-3.43-7.35-7.35h.98c.31,0,.56-.25.56-.56s-.25-.56-.56-.56h-.99c.25-3.98,3.39-7.16,7.36-7.47v1.04c0,.31.25.56.56.56s.56-.25.56-.56v-1.05c4.02.26,7.22,3.46,7.48,7.48h-1.1c-.31,0-.56.25-.56.56s.25.56.56.56h1.09c-.3,3.95-3.5,7.11-7.47,7.36Z"/><path class="cls-1" d="M14.54,15.49h-2.62v-3.7c0-.31-.25-.56-.56-.56s-.56.25-.56.56v4.26c0,.15.05.29.15.39s.24.16.39.16h3.19c.31,0,.56-.25.56-.56s-.25-.56-.56-.56Z"/></g></svg>