<?xml version="1.0" encoding="UTF-8"?><svg id="Capa_2" xmlns="http://www.w3.org/2000/svg" viewBox="0 0 32.06 25.81"><defs><style>.cls-1{fill:#39a900;stroke-width:0px;}</style></defs><g id="TEXTO"><path class="cls-1" d="M27.34,23.24h-1.05c-.26,0-.47.21-.47.47s.21.47.47.47h1.05c.26,0,.47-.21.47-.47s-.21-.47-.47-.47Z"/><path class="cls-1" d="M15.99,5.59c-2.01,0-3.9.78-5.32,2.2-.18.18-.18.48,0,.66.18.18.48.18.66,0,1.24-1.24,2.9-1.93,4.66-1.93s3.41.68,4.66,1.93c.18.18.48.18.66,0,.18-.18.18-.48,0-.66-1.42-1.42-3.31-2.2-5.32-2.2h0Z"/><path class="cls-1" d="M19.71,10.06c.18-.18.18-.48,0-.66-2.05-2.05-5.39-2.05-7.44,0-.18.18-.18.48,0,.66.18.18.48.18.66,0,1.68-1.68,4.42-1.68,6.11,0,.18.18.48.18.66,0Z"/><path class="cls-1" d="M13.88,11c-.18.18-.18.48,0,.66.18.18.48.18.66,0,.8-.8,2.1-.8,2.91,0,.18.18.48.18.66,0,.18-.18.18-.48,0-.66-1.17-1.17-3.07-1.17-4.23,0Z"/><path class="cls-1" d="M19.83,16.69c.26,0,.47-.21.47-.47s-.21-.47-.47-.47H5.22V3.14h21.63v4.52c0,.26.21.47.47.47s.47-.21.47-.47V3.1c0-.5-.4-.9-.9-.9H5.18c-.5,0-.9.4-.9.9v12.69c0,.5.4.9.9.9h14.66Z"/><path class="cls-1" d="M30.61,9.39h-.63V2.1c0-1.16-.94-2.1-2.1-2.1H4.17c-1.16,0-2.1.94-2.1,2.1v15.86h-.82c-.69,0-1.25.56-1.25,1.25,0,1.91,1.55,3.46,3.46,3.46h18.11v1.7c0,.8.65,1.45,1.45,1.45h7.6c.8,0,1.45-.65,1.45-1.45v-13.53c0-.8-.65-1.45-1.45-1.45h0ZM3.01,2.1c0-.64.52-1.16,1.16-1.16h23.72c.64,0,1.16.52,1.16,1.16v7.29h-6.03c-.8,0-1.45.65-1.45,1.45v7.12H3.01V2.1h0ZM11.5,18.89h7.93v.47c0,.26-.21.47-.47.47h-6.98c-.26,0-.47-.21-.47-.47v-.47ZM3.46,21.72c-1.39,0-2.52-1.13-2.52-2.52,0-.17.14-.31.31-.31h9.31v.47c0,.78.63,1.41,1.41,1.41h6.98c.78,0,1.41-.63,1.41-1.41v-.47h1.2v2.83H3.46ZM31.12,24.37c0,.28-.23.51-.51.51h-7.6c-.28,0-.51-.23-.51-.51v-13.53c0-.28.23-.51.51-.51h7.6c.28,0,.51.23.51.51v13.53h0Z"/><path class="cls-1" d="M29.5,11.11h-5.37c-.46,0-.84.38-.84.84v9.72c0,.46.38.84.84.84h5.37c.46,0,.84-.38.84-.84v-9.72c0-.46-.38-.84-.84-.84h0ZM29.4,21.58h-5.17v-9.53h5.17v9.53Z"/></g></svg>