<?xml version="1.0" encoding="utf-8"?>
<!-- Generator: Adobe Illustrator 28.3.0, SVG Export Plug-In . SVG Version: 6.00 Build 0)  -->
<svg version="1.1" id="Capa_1" xmlns="http://www.w3.org/2000/svg" xmlns:xlink="http://www.w3.org/1999/xlink" x="0px" y="0px"
	 viewBox="0 0 100 100" style="enable-background:new 0 0 100 100;" xml:space="preserve">
<style type="text/css">
	.st0{fill:#FFFFFF;}
	.st1{fill:#39A900;}
</style>
<path class="st0" d="M57.5,24.6c0,4.1-3.4,7.5-7.5,7.5s-7.5-3.4-7.5-7.5s3.4-7.5,7.5-7.5C54.1,17.2,57.4,20.5,57.5,24.6"/>
<path class="st0" d="M26.3,36.8c-0.1-0.4-0.4-0.6-0.8-0.7l-1.3-0.2c-1.1,0-1.6,0.2-1.6,0.6s9,0.5,9,4.1s-3,3.4-7.3,3.4
	s-6.8-1.5-6.9-3.3h4.9c0.1,0.4,0.4,0.6,0.8,0.8c0.5,0.2,1,0.3,1.5,0.3c1.2,0,2.1-0.3,2.1-0.8s-9-0.4-9-4.2c0-2.1,2.9-3.1,6.8-3.1
	s6.3,1.4,6.6,3.1L26.3,36.8z"/>
<polygon class="st0" points="33.9,43.8 33.9,33.9 46.7,33.9 46.7,36.2 39.1,36.2 39.1,37.6 45.5,37.6 45.5,39.9 39.1,39.9 
	39.1,41.5 47,41.5 47,43.8 "/>
<polygon class="st0" points="59.8,39.3 59.6,37 59.6,33.9 64.5,33.9 64.5,43.8 59.7,43.8 54.2,38.4 54.3,40.6 54.3,43.8 49.4,43.8 
	49.4,33.9 54.2,33.9 "/>
<path class="st0" d="M74.4,36.9l-1.6,3.5h3.3L74.4,36.9z M66.3,43.8l5.6-9.9h5.2l5.6,9.9h-5.1l-0.7-1.3h-5l-0.6,1.3H66.3z"/>
<polygon class="st0" points="83.8,45.9 52.5,45.9 70.7,78.3 74.7,74.8 60.2,50.4 83.9,50.4 "/>
<polygon class="st0" points="16.2,45.9 47.5,45.9 29.3,78.3 25.3,74.8 39.8,50.4 16.1,50.4 "/>
<polygon class="st0" points="32.8,80.8 49.9,51.4 67.4,80.6 62.8,82.7 50.2,60.2 36.9,82.9 "/>
<g>
	<rect x="-1.2" y="-0.1" class="st1" width="102.4" height="100.3"/>
	<g>
		<path class="st0" d="M57.9,23.4c0,4.3-3.5,7.9-7.9,7.9c-4.3,0-7.9-3.5-7.9-7.9c0-4.3,3.5-7.9,7.9-7.9
			C54.3,15.6,57.9,19.1,57.9,23.4"/>
		<path class="st0" d="M25.2,36.2c-0.1-0.4-0.4-0.6-0.8-0.7c-0.4-0.1-0.9-0.2-1.4-0.2c-1.2,0-1.7,0.2-1.7,0.6c0,1.5,9.4,0.6,9.4,4.3
			c0,2.4-3.2,3.5-7.6,3.5c-4.3,0-7.1-1.6-7.2-3.4H21c0.1,0.4,0.4,0.6,0.9,0.8c0.4,0.2,1,0.3,1.5,0.3c1.3,0,2.2-0.3,2.2-0.8
			c0-1.6-9.4-0.5-9.4-4.4c0-2.2,3-3.3,7.1-3.3c4.5,0,6.6,1.5,7,3.3H25.2z"/>
		<polygon class="st0" points="33.2,43.5 33.2,33.2 46.5,33.2 46.5,35.6 38.6,35.6 38.6,37 45.3,37 45.3,39.5 38.6,39.5 38.6,41.1 
			46.8,41.1 46.8,43.5 		"/>
		<polygon class="st0" points="60.3,38.8 60.1,36.4 60.1,33.2 65.2,33.2 65.2,43.5 60.2,43.5 54.3,37.9 54.5,40.2 54.5,43.5 
			49.4,43.5 49.4,33.2 54.4,33.2 		"/>
		<path class="st0" d="M67,43.5l5.9-10.3h5.4l5.9,10.3h-5.3l-0.6-1.4h-5.3l-0.6,1.4H67z M75.5,36.3L73.9,40h3.4L75.5,36.3z"/>
		<polygon class="st0" points="85.3,45.7 52.6,45.7 71.7,79.6 75.9,75.9 60.6,50.4 85.5,50.4 		"/>
		<polygon class="st0" points="14.7,45.7 47.4,45.7 28.3,79.6 24.1,75.9 39.4,50.4 14.5,50.4 		"/>
		<polygon class="st0" points="32,82.3 49.8,51.4 68.2,82 63.4,84.2 50.3,60.7 36.3,84.4 		"/>
	</g>
</g>
</svg>
